G04*
G04 #@! TF.GenerationSoftware,Altium Limited,Altium Designer,22.4.2 (48)*
G04*
G04 Layer_Color=8388736*
%FSLAX25Y25*%
%MOIN*%
G70*
G04*
G04 #@! TF.SameCoordinates,F9A4DCB5-2B7C-4553-87A1-470B5E90004D*
G04*
G04*
G04 #@! TF.FilePolarity,Negative*
G04*
G01*
G75*
%ADD18R,0.06587X0.05367*%
G04:AMPARAMS|DCode=19|XSize=47.37mil|YSize=63.91mil|CornerRadius=8.92mil|HoleSize=0mil|Usage=FLASHONLY|Rotation=270.000|XOffset=0mil|YOffset=0mil|HoleType=Round|Shape=RoundedRectangle|*
%AMROUNDEDRECTD19*
21,1,0.04737,0.04606,0,0,270.0*
21,1,0.02953,0.06391,0,0,270.0*
1,1,0.01784,-0.02303,-0.01476*
1,1,0.01784,-0.02303,0.01476*
1,1,0.01784,0.02303,0.01476*
1,1,0.01784,0.02303,-0.01476*
%
%ADD19ROUNDEDRECTD19*%
%ADD20R,0.05800X0.14304*%
%ADD21R,0.01800X0.01800*%
%ADD22C,0.01900*%
%ADD23C,0.05800*%
D18*
X148500Y437965D02*
D03*
Y431035D02*
D03*
D19*
X207000Y434819D02*
D03*
Y442181D02*
D03*
X197500Y410138D02*
D03*
Y417500D02*
D03*
D20*
X144000Y482000D02*
D03*
X154000Y470504D02*
D03*
X164000Y482000D02*
D03*
X174000Y470504D02*
D03*
X184000Y482000D02*
D03*
X210000Y470504D02*
D03*
X200000Y482000D02*
D03*
D21*
X201720Y346000D02*
D03*
X211365D02*
D03*
D22*
X212600Y342900D02*
D03*
X197500Y348000D02*
D03*
D23*
X162500Y448500D02*
D03*
X173000Y418500D02*
D03*
X194500Y447000D02*
D03*
X179000Y449500D02*
D03*
X174000Y458500D02*
D03*
X207000Y456500D02*
D03*
X197769Y429017D02*
D03*
X183000Y414000D02*
D03*
M02*
