G04*
G04 #@! TF.GenerationSoftware,Altium Limited,Altium Designer,22.4.2 (48)*
G04*
G04 Layer_Color=8421504*
%FSLAX25Y25*%
%MOIN*%
G70*
G04*
G04 #@! TF.SameCoordinates,F9A4DCB5-2B7C-4553-87A1-470B5E90004D*
G04*
G04*
G04 #@! TF.FilePolarity,Positive*
G04*
G01*
G75*
%ADD11C,0.01000*%
%ADD13C,0.01000*%
%ADD14R,0.05787X0.04567*%
G04:AMPARAMS|DCode=15|XSize=39.37mil|YSize=55.91mil|CornerRadius=4.92mil|HoleSize=0mil|Usage=FLASHONLY|Rotation=270.000|XOffset=0mil|YOffset=0mil|HoleType=Round|Shape=RoundedRectangle|*
%AMROUNDEDRECTD15*
21,1,0.03937,0.04606,0,0,270.0*
21,1,0.02953,0.05591,0,0,270.0*
1,1,0.00984,-0.02303,-0.01476*
1,1,0.00984,-0.02303,0.01476*
1,1,0.00984,0.02303,0.01476*
1,1,0.00984,0.02303,-0.01476*
%
%ADD15ROUNDEDRECTD15*%
%ADD16R,0.05000X0.13504*%
%ADD17R,0.01000X0.01000*%
D11*
X209720Y346001D02*
G03*
X177720Y378000I-32000J-0D01*
G01*
X209720Y346000D02*
G03*
X209720Y346001I-32000J0D01*
G01*
X207720Y346000D02*
G03*
X177720Y376000I-30000J-0D01*
G01*
X211365Y346000D02*
G03*
X177720Y379644I-33644J0D01*
G01*
X205720Y346000D02*
G03*
X177720Y374000I-28000J-0D01*
G01*
X203720Y346000D02*
G03*
X177720Y372000I-26000J-0D01*
G01*
Y312356D02*
G03*
X209720Y346000I-822J32822D01*
G01*
X177720Y318000D02*
G03*
X203720Y346000I-1000J27000D01*
G01*
X177720Y320000D02*
G03*
X201720Y346000I-1000J25000D01*
G01*
X177721Y314000D02*
G03*
X207720Y346000I-1000J31000D01*
G01*
X177720Y316000D02*
G03*
X205720Y346000I-1000J29000D01*
G01*
X151720D02*
G03*
X177720Y320000I26000J0D01*
G01*
X149720Y346000D02*
G03*
X177720Y318000I28000J0D01*
G01*
X147720Y346000D02*
G03*
X177720Y316000I30000J0D01*
G01*
X145720Y346000D02*
G03*
X177720Y314000I32000J0D01*
G01*
X144076Y346000D02*
G03*
X177720Y312356I33644J0D01*
G01*
X177720Y378000D02*
G03*
X145720Y346000I0J-32000D01*
G01*
X177720Y374000D02*
G03*
X149720Y346000I0J-28000D01*
G01*
X177720Y372000D02*
G03*
X151720Y346000I0J-26000D01*
G01*
X177720Y379644D02*
G03*
X144076Y346000I0J-33644D01*
G01*
X177720Y376000D02*
G03*
X147720Y346000I0J-30000D01*
G01*
D13*
X207720D02*
D03*
D14*
X148500Y437965D02*
D03*
Y431035D02*
D03*
D15*
X207000Y434819D02*
D03*
Y442181D02*
D03*
X197500Y410138D02*
D03*
Y417500D02*
D03*
D16*
X144000Y482000D02*
D03*
X154000Y470504D02*
D03*
X164000Y482000D02*
D03*
X174000Y470504D02*
D03*
X184000Y482000D02*
D03*
X210000Y470504D02*
D03*
X200000Y482000D02*
D03*
D17*
X201720Y346000D02*
D03*
X211365D02*
D03*
M02*
