G04*
G04 #@! TF.GenerationSoftware,Altium Limited,Altium Designer,22.4.2 (48)*
G04*
G04 Layer_Physical_Order=2*
G04 Layer_Color=16711680*
%FSLAX25Y25*%
%MOIN*%
G70*
G04*
G04 #@! TF.SameCoordinates,F9A4DCB5-2B7C-4553-87A1-470B5E90004D*
G04*
G04*
G04 #@! TF.FilePolarity,Positive*
G04*
G01*
G75*
%ADD11C,0.01000*%
%ADD24C,0.01500*%
%ADD25C,0.01100*%
%ADD26C,0.05000*%
%ADD27R,0.05600X0.02100*%
D11*
X206540Y348960D02*
Y350960D01*
Y348960D02*
X212600Y342900D01*
X200500Y357000D02*
X206540Y350960D01*
X151000Y394500D02*
X197500Y348000D01*
X151000Y394500D02*
Y421000D01*
X193500Y357000D02*
X200500D01*
X155500Y395000D02*
X193500Y357000D01*
X161000Y427814D02*
X163200Y430014D01*
X161000Y424000D02*
Y427814D01*
X155500Y418500D02*
X161000Y424000D01*
X163200Y430450D02*
X163750Y431000D01*
X165500D01*
X163200Y430014D02*
Y430450D01*
X155500Y395000D02*
Y418500D01*
X159500Y433000D02*
X162014Y435514D01*
X151000Y421000D02*
X159500Y429500D01*
Y433000D01*
X162014Y435514D02*
X165014D01*
X165500Y436000D01*
D24*
X162500Y447553D02*
Y448500D01*
X161329Y446382D02*
X162500Y447553D01*
X161329Y443421D02*
Y446382D01*
Y443421D02*
X163450Y441300D01*
X165200D01*
X165500Y441000D01*
X193500Y431000D02*
X194813Y429687D01*
X197099D01*
X197769Y429017D01*
X172330Y419170D02*
Y420920D01*
X167250Y426000D02*
X172330Y420920D01*
Y419170D02*
X173000Y418500D01*
X198500Y435500D02*
Y448000D01*
X207000Y456500D01*
X194000Y431000D02*
X198500Y435500D01*
X174000Y458500D02*
X174629D01*
X176629Y456500D02*
X193500D01*
X194500Y455500D01*
X174629Y458500D02*
X176629Y456500D01*
X194500Y447000D02*
Y455500D01*
X189250Y441000D02*
X194500Y446250D01*
X179000Y433500D02*
X179879Y432621D01*
X187200Y435700D02*
X187500Y436000D01*
X181121Y432621D02*
X184200Y435700D01*
X179000Y433500D02*
Y449500D01*
X179879Y432621D02*
X181121D01*
X184200Y435700D02*
X187200D01*
X165500Y426000D02*
X167250D01*
X187500Y441000D02*
X189250D01*
X187500Y431000D02*
X189250D01*
X194000D01*
X185450Y417397D02*
Y425700D01*
X183000Y414000D02*
Y414947D01*
X185750Y426000D02*
X187500D01*
X185450Y425700D02*
X185750Y426000D01*
X183000Y414947D02*
X185450Y417397D01*
D25*
X212600Y342900D02*
D03*
X197500Y348000D02*
D03*
D26*
X162500Y448500D02*
D03*
X173000Y418500D02*
D03*
X194500Y447000D02*
D03*
X179000Y449500D02*
D03*
X174000Y458500D02*
D03*
X207000Y456500D02*
D03*
X197769Y429017D02*
D03*
X183000Y414000D02*
D03*
D27*
X187500Y426000D02*
D03*
Y431000D02*
D03*
Y436000D02*
D03*
Y441000D02*
D03*
X165500D02*
D03*
Y436000D02*
D03*
Y431000D02*
D03*
Y426000D02*
D03*
M02*
