G04*
G04 #@! TF.GenerationSoftware,Altium Limited,Altium Designer,22.4.2 (48)*
G04*
G04 Layer_Color=65535*
%FSLAX25Y25*%
%MOIN*%
G70*
G04*
G04 #@! TF.SameCoordinates,F9A4DCB5-2B7C-4553-87A1-470B5E90004D*
G04*
G04*
G04 #@! TF.FilePolarity,Positive*
G04*
G01*
G75*
%ADD10C,0.00787*%
%ADD11C,0.01000*%
%ADD12C,0.00500*%
D10*
X143409Y491744D02*
G03*
X143409Y491744I-394J0D01*
G01*
X211378Y460760D02*
G03*
X211378Y460760I-394J0D01*
G01*
X139000Y471252D02*
X149000D01*
X139000D02*
Y481252D01*
X189000Y471252D02*
Y481252D01*
X179000Y471252D02*
X189000D01*
X205000Y481252D02*
X215000D01*
Y471252D02*
Y481252D01*
X195000Y471252D02*
Y481252D01*
Y471252D02*
X205000D01*
D11*
X214720Y346000D02*
G03*
X214720Y346000I-37000J0D01*
G01*
X204100Y448300D02*
Y454298D01*
X207099D01*
X208099Y453298D01*
Y451299D01*
X207099Y450299D01*
X204100D01*
X206099D02*
X208099Y448300D01*
X214097D02*
X210098D01*
X214097Y452299D01*
Y453298D01*
X213097Y454298D01*
X211098D01*
X210098Y453298D01*
X194600Y423600D02*
Y429598D01*
X197599D01*
X198599Y428598D01*
Y426599D01*
X197599Y425599D01*
X194600D01*
X196599D02*
X198599Y423600D01*
X200598D02*
X202597D01*
X201598D01*
Y429598D01*
X200598Y428598D01*
X149499Y449298D02*
X148499Y450298D01*
X146500D01*
X145500Y449298D01*
Y445300D01*
X146500Y444300D01*
X148499D01*
X149499Y445300D01*
X151498Y444300D02*
X153497D01*
X152498D01*
Y450298D01*
X151498Y449298D01*
X184000Y496999D02*
X182001D01*
X183000D01*
Y492001D01*
X182001Y491001D01*
X181001D01*
X180001Y492001D01*
X185999Y491001D02*
X187999D01*
X186999D01*
Y496999D01*
X185999Y495999D01*
X199000Y496999D02*
X197001D01*
X198001D01*
Y492001D01*
X197001Y491001D01*
X196001D01*
X195002Y492001D01*
X204998Y491001D02*
X201000D01*
X204998Y495000D01*
Y495999D01*
X203999Y496999D01*
X201999D01*
X201000Y495999D01*
D12*
X203496Y434563D02*
Y442437D01*
X210504Y434563D02*
Y442437D01*
X193996Y409882D02*
Y417756D01*
X201004Y409882D02*
Y417756D01*
M02*
